{"title":"BULLET TO THE HEAD 2013 CAMRIP[READ NFO]CLEANED AUDIO-INFERNO","uid":8172278,"size":702686263,"categoryP":"video","categoryS":"movies","magnet":"?xt=urn:btih:203cc3dc8f43a52101f261c0ec7112c3fd10c3af&amp;dn=BULLET+TO+THE+HEAD+2013+CAMRIP%5BREAD+NFO%5DCLEANED+AUDIO-INFERNO&amp;tr=udp%3A%2F%2Ftracker.openbittorrent.com%3A80&amp;tr=udp%3A%2F%2Fopen.demonii.com%3A1337&amp;tr=udp%3A%2F%2Ftracker.coppersurfer.tk%3A6969&amp;tr=udp%3A%2F%2Fexodus.desync.com%3A6969","seeders":1,"leechers":0,"uploader":".SceNe.","files":4,"time":1361455443,"description":" &lt;a href=&quot;http://lookpic.com/O/i2/479/jp0rbhFM.jpeg&quot; rel=&quot;nofollow&quot; target=&quot;_NEW&quot;&gt;http://lookpic.com/O/i2/479/jp0rbhFM.jpeg&lt;/a&gt;\n\n\nBullet to the Head- Camrip\nENCODED BY: EVILDEEDS74\n\nFormat : x264\nFormat/Info : Matroska\nFile size : 640 MiB \nDuration : 1h 26mn \nOverall bit rate : 1 039 Kbps \nWriting library : VirtualDub build 32842/release \n\nVideo \nID : 0 \nFormat : AVC \nFormat/Info : Advanced Video Codec \nFormat profile : &lt;a class=&quot;__cf_email__&quot; href=&quot;/cdn-cgi/l/email-protection&quot; data-cfemail=&quot;afe7c6c8c7efe39b819e&quot;&gt;[email&amp;#160;protected]&lt;/a&gt;&lt;script cf-hash='f9e31' type=&quot;text/javascript&quot;&gt;\n/* &lt;![CDATA[ */!function(){try{var t=&quot;currentScript&quot;in document?document.currentScript:function(){for(var t=document.getElementsByTagName(&quot;script&quot;),e=t.length;e--;)if(t[e].getAttribute(&quot;cf-hash&quot;))return t[e]}();if(t&amp;&amp;t.previousSibling){var e,r,n,i,c=t.previousSibling,a=c.getAttribute(&quot;data-cfemail&quot;);if(a){for(e=&quot;&quot;,r=parseInt(a.substr(0,2),16),n=2;a.length-n;n+=2)i=parseInt(a.substr(n,2),16)^r,e+=String.fromCharCode(i);e=document.createTextNode(e),c.parentNode.replaceChild(e,c)}}}catch(u){}}();/* ]]&gt; */&lt;/script&gt; \nFormat settings, CABAC : Yes \nFormat settings, ReFrames : 4 frames \nCodec ID : AVC1 \nDuration : 1h 26mn \nBit rate : 900 Kbps \nWidth : 600 pixels \nHeight : 296 pixels \nDisplay aspect ratio : 2.027 \nFrame rate : 29.970 fps \nColor space : YUV \nChroma subsampling : 4:2:0 \nBit depth : 8 bits \nScan type : Progressive \nBits/(Pixel*Frame) : 0.169 \nStream size : 554 MiB (87%) \nWriting library : x264 core 125 \n\nAudio \nID : 1 \nFormat : MPEG Audio \nFormat version : Version 1 \nFormat profile : Layer 3 \nMode : Joint stereo \nMode extension : MS Stereo \nCodec ID : 55 \nCodec ID/Hint : MP3 \nDuration : 1h 26mn \nBit rate mode : Constant \nBit rate : 128 Kbps \nChannel(s) : 2 channels \nSampling rate : 48.0 KHz \nCompression mode : Lossy \nStream size : 78.9 MiB (12%) \nAlignment : Split accross interleaves \nInterleave, duration : 33 ms (1.00 video frame) \nInterleave, preload duration : 500 ms \nWriting library : LAME3.98.4 \n &lt;a href=&quot;\nhttp://i.imgbox.com/abfhXjI9.jpg&quot; rel=&quot;nofollow&quot; target=&quot;_NEW&quot;&gt;\nhttp://i.imgbox.com/abfhXjI9.jpg&lt;/a&gt; &lt;a href=&quot;\nhttp://i.imgbox.com/acx9AlSi.jpg&quot; rel=&quot;nofollow&quot; target=&quot;_NEW&quot;&gt;\nhttp://i.imgbox.com/acx9AlSi.jpg&lt;/a&gt; &lt;a href=&quot;\nhttp://i.imgbox.com/abrz1lhy.jpg&quot; rel=&quot;nofollow&quot; target=&quot;_NEW&quot;&gt;\nhttp://i.imgbox.com/abrz1lhy.jpg&lt;/a&gt; &lt;a href=&quot;\nhttp://i.imgbox.com/adbJQGUb.jpg&quot; rel=&quot;nofollow&quot; target=&quot;_NEW&quot;&gt;\nhttp://i.imgbox.com/adbJQGUb.jpg&lt;/a&gt; &lt;a href=&quot;\nhttp://i.imgbox.com/acr06aIG.jpg&quot; rel=&quot;nofollow&quot; target=&quot;_NEW&quot;&gt;\nhttp://i.imgbox.com/acr06aIG.jpg&lt;/a&gt;","torrent":{"xt":"urn:btih:203cc3dc8f43a52101f261c0ec7112c3fd10c3af","amp;dn":"BULLET+TO+THE+HEAD+2013+CAMRIP%5BREAD+NFO%5DCLEANED+AUDIO-INFERNO","amp;tr":["udp%3A%2F%2Ftracker.openbittorrent.com%3A80","udp%3A%2F%2Fopen.demonii.com%3A1337","udp%3A%2F%2Ftracker.coppersurfer.tk%3A6969","udp%3A%2F%2Fexodus.desync.com%3A6969"],"infoHash":"203cc3dc8f43a52101f261c0ec7112c3fd10c3af","infoHashBuffer":{"type":"Buffer","data":[32,60,195,220,143,67,165,33,1,242,97,192,236,113,18,195,253,16,195,175]},"announce":[],"urlList":[]}}